<svg id="cycle-couple-of-arrows-hand-drawn-lines" xmlns="http://www.w3.org/2000/svg" width="14" height="16" viewBox="0 0 14 16">
  <path id="Path" d="M4.872.012C-.7.9-1.463,9.377,2.427,12.741c-.331.169-.664.336-1,.5a.991.991,0,0,0-.322,1.307.887.887,0,0,0,1.228.342c.818-.39,1.621-.815,2.423-1.241a.824.824,0,0,0,.4-.432,1.151,1.151,0,0,0,.2-.885c-.117-.771-.193-1.545-.237-2.324C5.042,8.78,3.247,8.773,3.316,10c.02.352.049.7.082,1.054C.781,8.415,1.261,2.506,5.349,1.854,6.49,1.672,6-.168,4.872.012Z" transform="translate(0 1)"/>
  <path id="Path-2" data-name="Path" d="M3.573,2.259c.331-.169.664-.336,1-.5A.991.991,0,0,0,4.895.456.887.887,0,0,0,3.667.114C2.849.5,2.046.928,1.244,1.355a.825.825,0,0,0-.4.432,1.152,1.152,0,0,0-.2.885C.77,3.443.846,4.217.89,5,.959,6.22,2.753,6.227,2.684,5c-.02-.352-.049-.7-.082-1.054,2.617,2.643,2.137,8.552-1.951,9.2-1.141.182-.655,2.022.477,1.841C6.7,14.1,7.463,5.623,3.573,2.259Z" transform="translate(8)"/>
</svg>
