<svg xmlns="http://www.w3.org/2000/svg" width="11.314" height="11.314" viewBox="0 0 11.314 11.314">
  <g id="Group_17" data-name="Group 17" transform="translate(5.657) rotate(45)">
    <path id="Path" d="M4.283,5a.713.713,0,0,1-.506-.207L.21,1.224A.716.716,0,1,1,1.223.21L4.789,3.779A.714.714,0,0,1,4.283,5Z" transform="translate(3 3)"/>
    <path id="Path-2" data-name="Path" d="M.717,5A.714.714,0,0,1,.211,3.779L3.777.21A.716.716,0,0,1,4.79,1.224L1.224,4.793A.713.713,0,0,1,.717,5Z" transform="translate(0 3)"/>
    <path id="Path-3" data-name="Path" d="M.717,5A.714.714,0,0,1,.211,3.779L3.777.21A.716.716,0,0,1,4.79,1.224L1.224,4.793A.713.713,0,0,1,.717,5Z" transform="translate(3)"/>
    <path id="Path-4" data-name="Path" d="M4.283,5a.713.713,0,0,1-.506-.207L.21,1.224A.716.716,0,0,1,1.223.21L4.789,3.779A.714.714,0,0,1,4.283,5Z"/>
  </g>
</svg>
