<svg id="Group_16" data-name="Group 16" xmlns="http://www.w3.org/2000/svg" width="32" height="32" viewBox="0 0 32 32">
  <circle id="Oval" cx="16" cy="16" r="16" fill="#f7f8fa"/>
  <g id="write" transform="translate(9 9)">
    <path id="Path" d="M.667,2a.667.667,0,1,1,0-1.333h0A.666.666,0,1,1,2,.667,1.335,1.335,0,0,1,.667,2Z" transform="translate(10 12)"/>
    <path id="Path-2" data-name="Path" d="M.5,6A.5.5,0,0,1,0,5.492V.508A.5.5,0,0,1,.5,0,.5.5,0,0,1,1,.508V5.492A.5.5,0,0,1,.5,6Z" transform="translate(11 7)"/>
    <path id="Path-3" data-name="Path" d="M10.45,1H.55A.527.527,0,0,1,0,.5.527.527,0,0,1,.55,0h9.9A.527.527,0,0,1,11,.5.527.527,0,0,1,10.45,1Z" transform="translate(0 13)"/>
    <path id="Path-4" data-name="Path" d="M1.333,2A1.335,1.335,0,0,1,0,.667a.667.667,0,0,1,1.333,0h0A.666.666,0,1,1,1.333,2Z" transform="translate(0 12)"/>
    <path id="Path-5" data-name="Path" d="M.5,11a.527.527,0,0,1-.5-.55V.55A.527.527,0,0,1,.5,0,.527.527,0,0,1,1,.55v9.9A.527.527,0,0,1,.5,11Z" transform="translate(0 3)"/>
    <path id="Path-6" data-name="Path" d="M.666,2A.666.666,0,0,1,0,1.333,1.335,1.335,0,0,1,1.333,0a.667.667,0,0,1,0,1.333h0A.666.666,0,0,1,.666,2Z" transform="translate(0 2)"/>
    <path id="Path-7" data-name="Path" d="M5.492,1H.508A.5.5,0,0,1,0,.5.5.5,0,0,1,.508,0H5.492A.5.5,0,0,1,6,.5.5.5,0,0,1,5.492,1Z" transform="translate(1 2)"/>
    <path id="Path-8" data-name="Path" d="M.51,6a.51.51,0,0,1-.361-.87L5.13.149A.51.51,0,0,1,5.851.87L.87,5.851A.508.508,0,0,1,.51,6Z" transform="translate(5 1)"/>
    <path id="Path-9" data-name="Path" d="M.675,3a.954.954,0,0,1-.142-.01c-.364-.053-.6-.3-.518-.548L.666.365a.716.716,0,0,1,.8-.354c.364.053.6.3.518.548L1.334,2.635A.667.667,0,0,1,.675,3Z" transform="translate(5 6)"/>
    <path id="Path-10" data-name="Path" d="M.51,6a.51.51,0,0,1-.361-.87L5.13.149A.51.51,0,0,1,5.851.87L.87,5.851A.507.507,0,0,1,.51,6Z" transform="translate(8 3)"/>
    <path id="Path-11" data-name="Path" d="M.615,2a.632.632,0,0,1-.6-.533.677.677,0,0,1,.473-.8L3.256.015a.619.619,0,0,1,.731.518.677.677,0,0,1-.473.8L.744,1.985A.57.57,0,0,1,.615,2Z" transform="translate(5 7)"/>
    <path id="Path-12" data-name="Path" d="M2.458,3a.539.539,0,0,1-.383-.159L.159.925A.542.542,0,0,1,.925.159L2.841,2.075A.542.542,0,0,1,2.458,3Z" transform="translate(10 1)"/>
    <path id="Path-13" data-name="Path" d="M2.9,4a.639.639,0,0,1-.452-1.091.973.973,0,0,0,0-1.355,1,1,0,0,0-1.356,0,.639.639,0,1,1-.9-.9A2.219,2.219,0,0,1,1.769,0,2.216,2.216,0,0,1,4,2.231a2.219,2.219,0,0,1-.649,1.582A.635.635,0,0,1,2.9,4Z" transform="translate(10)"/>
  </g>
</svg>
